<svg x="0" y="0" width="1466" height="348" viewBox="0 0 1466 348" version="1.1" xmlns="http://www.w3.org/2000/svg" style="display: block;margin-left: auto;margin-right: auto;">
<defs>
<clipPath id="c_1"><path d="M0,0H1466V348H0Z"/></clipPath>
<clipPath id="c0"><path d="M-.2 349V-.2H1467V349Z"/></clipPath>
<clipPath id="c1"><path d="M1325.8 190.1v-45h56.4v45Z"/></clipPath>
<clipPath id="c2"><path d="M1112.3 144.1V96.4h212.9v47.7Z"/></clipPath>
<clipPath id="c3"><path d="M1127 306.5V261.4h208v45.1Z"/></clipPath>

<style>
text { white-space: pre; }
path, image { pointer-events: none; }

.s0{font-size:27.50px;font-family:DejaVuMathTeXGyre-Regular_2-;fill:#000;}
.s1{font-size:16.02px;font-family:DejaVuMathTeXGyre-Regular_2-;fill:#000;}
.s2{font-size:16.02px;font-family:DejaVuMathTeXGyre-Regular_2-;fill:#00B050;}
.s3{font-size:16.02px;font-family:DejaVuMathTeXGyre-Regular_2-;fill:#F00;}

.g0{fill:#FFF;}
.g1{fill:none;stroke:#000;stroke-width:0.779;stroke-miterlimit:3;}
.g2{fill:#F00;}
.g3{fill:none;stroke:#F00;stroke-width:1.515;stroke-miterlimit:3;}
.g4{fill:#00B050;}
.g5{fill:none;stroke:#00B050;stroke-width:1.515;stroke-miterlimit:3;}
.g6{fill:none;stroke:#F00;stroke-width:1.905;stroke-miterlimit:3;}
.g7{fill:none;stroke:#00B050;stroke-width:0.152;stroke-linejoin:round;}
.g8{fill:none;stroke:#00B050;stroke-width:1.905;stroke-miterlimit:3;}
.g9{fill:none;stroke:#000;stroke-width:3.81;stroke-miterlimit:10;}
.ga{fill:#000;}
.gb{fill:#4472C4;}
.gc{fill:none;stroke:#4472C4;stroke-width:1.515;stroke-miterlimit:3;}
.gd{fill:none;stroke:#4472C4;stroke-width:1.905;stroke-miterlimit:3;}
.ge{fill:none;stroke:#000;stroke-width:1.905;stroke-miterlimit:3;}
.gf{fill:none;stroke:#000;stroke-width:0.779;stroke-miterlimit:10;}
.gg{fill:none;stroke:#00B050;stroke-width:6.495;stroke-miterlimit:10;}
.gh{fill:none;stroke:#F00;stroke-width:0.152;stroke-linejoin:round;}
.gi{fill:none;stroke:#000;stroke-width:0.152;stroke-linejoin:round;}

</style>

</defs>
<path d="M0 0V348H1466V0Z" fill="#FFFFFF" stroke="none"/>
<g clip-path="url(#c_1)">
<path fill-rule="evenodd" d="M0 0H1466.6V348.7H0V0Z" class="g0"/>
<g clip-path="url(#c0)">
<path fill-rule="evenodd" d="M0 0H1466.7V348.7H0V0Z" class="g0"/>
<image preserveAspectRatio="none" x="-1" y="42" width="449" height="300" href="1/img/1.jpg"/>
<text x="32.8" y="27.8" class="s0">Step 1: Random point </text>
<text x="121" y="60.8" class="s0">sampling </text>
<path d="M456.2 0V348.7M1016.7 0V348.7" class="g1"/>
<text x="487.9" y="29.1" class="s0">Step 2: Occlusion aware </text>
<text x="594.7" y="62.1" class="s0">tracking </text>
<text x="1091.6" y="27.8" class="s0">Step 3: RMS FD over </text>
<text x="1155.3" y="60.8" class="s0">Trajectories </text>
</g>
<path fill-rule="evenodd" d="M117.9 296.9c0-1.4 .3-2.7 .9-3.8c.6-1.2 1.4-2.2 2.4-2.9c1-.6 2.1-1 3.3-1c1.1 0 2.3 .4 3.3 1c1 .7 1.8 1.7 2.4 2.9c.5 1.1 .8 2.4 .8 3.8c0 1.3-.3 2.6-.8 3.8c-.6 1.2-1.4 2.1-2.4 2.8c-1 .6-2.2 1-3.3 1c-1.2 0-2.3-.4-3.3-1c-1-.7-1.8-1.6-2.4-2.8c-.6-1.2-.9-2.5-.9-3.8Z" class="g2"/>
<path d="M117.9 296.9c0-1.4 .3-2.7 .9-3.8c.6-1.2 1.4-2.2 2.4-2.9c1-.6 2.1-1 3.3-1c1.1 0 2.3 .4 3.3 1c1 .7 1.8 1.7 2.4 2.9c.5 1.1 .8 2.4 .8 3.8c0 1.3-.3 2.6-.8 3.8c-.6 1.2-1.4 2.1-2.4 2.8c-1 .6-2.2 1-3.3 1c-1.2 0-2.3-.4-3.3-1c-1-.7-1.8-1.6-2.4-2.8c-.6-1.2-.9-2.5-.9-3.8Z" class="g3"/>
<path fill-rule="evenodd" d="M75.8 201.1c0-1.1 .4-2.2 1-3.2c.7-1 1.7-1.8 2.8-2.4c1.2-.6 2.5-.8 3.8-.8c1.3 0 2.6 .2 3.8 .8c1.1 .6 2.1 1.4 2.7 2.4c.7 1 1 2.1 1 3.2c0 1.1-.3 2.3-1 3.3c-.6 .9-1.6 1.7-2.7 2.3c-1.2 .6-2.5 .9-3.8 .9c-1.3 0-2.6-.3-3.8-.9c-1.1-.6-2.1-1.4-2.8-2.3c-.6-1-1-2.2-1-3.3Z" class="g2"/>
<path d="M75.8 201.1c0-1.1 .4-2.2 1-3.2c.7-1 1.7-1.8 2.8-2.4c1.2-.6 2.5-.8 3.8-.8c1.3 0 2.6 .2 3.8 .8c1.1 .6 2.1 1.4 2.7 2.4c.7 1 1 2.1 1 3.2c0 1.1-.3 2.3-1 3.3c-.6 .9-1.6 1.7-2.7 2.3c-1.2 .6-2.5 .9-3.8 .9c-1.3 0-2.6-.3-3.8-.9c-1.1-.6-2.1-1.4-2.8-2.3c-.6-1-1-2.2-1-3.3Z" class="g3"/>
<path fill-rule="evenodd" d="M53.4 238.3c0-1.1 .3-2.3 1-3.3c.7-.9 1.6-1.7 2.8-2.3c1.1-.6 2.4-.9 3.8-.9c1.3 0 2.6 .3 3.7 .9c1.2 .6 2.1 1.4 2.8 2.3c.7 1 1 2.2 1 3.3c0 1.1-.3 2.2-1 3.2c-.7 1-1.6 1.8-2.8 2.4c-1.1 .6-2.4 .8-3.7 .8c-1.4 0-2.7-.2-3.8-.8c-1.2-.6-2.1-1.4-2.8-2.4c-.7-1-1-2.1-1-3.2Z" class="g2"/>
<path d="M53.4 238.3c0-1.1 .3-2.3 1-3.3c.7-.9 1.6-1.7 2.8-2.3c1.1-.6 2.4-.9 3.8-.9c1.3 0 2.6 .3 3.7 .9c1.2 .6 2.1 1.4 2.8 2.3c.7 1 1 2.2 1 3.3c0 1.1-.3 2.2-1 3.2c-.7 1-1.6 1.8-2.8 2.4c-1.1 .6-2.4 .8-3.7 .8c-1.4 0-2.7-.2-3.8-.8c-1.2-.6-2.1-1.4-2.8-2.4c-.7-1-1-2.1-1-3.2Z" class="g3"/>
<path fill-rule="evenodd" d="M381.2 121.7c0-1.3 .3-2.6 1-3.7c.6-1.2 1.5-2.1 2.7-2.7c1.1-.7 2.4-1 3.7-1c1.3 0 2.5 .3 3.7 1c1.1 .6 2 1.5 2.7 2.7c.6 1.1 1 2.4 1 3.7c0 1.3-.4 2.5-1 3.6c-.7 1.2-1.6 2.1-2.7 2.7c-1.2 .7-2.4 1-3.7 1c-1.3 0-2.6-.3-3.7-1c-1.2-.6-2.1-1.5-2.7-2.7c-.7-1.1-1-2.3-1-3.6Z" class="g4"/>
<path d="M381.2 121.7c0-1.3 .3-2.6 1-3.7c.6-1.2 1.5-2.1 2.7-2.7c1.1-.7 2.4-1 3.7-1c1.3 0 2.5 .3 3.7 1c1.1 .6 2 1.5 2.7 2.7c.6 1.1 1 2.4 1 3.7c0 1.3-.4 2.5-1 3.6c-.7 1.2-1.6 2.1-2.7 2.7c-1.2 .7-2.4 1-3.7 1c-1.3 0-2.6-.3-3.7-1c-1.2-.6-2.1-1.5-2.7-2.7c-.7-1.1-1-2.3-1-3.6Z" class="g5"/>
<image clip-path="url(#c0)" preserveAspectRatio="none" x="470" y="42" width="529" height="296" href="1/img/2.jpg"/>
<path fill-rule="evenodd" d="M547.4 232c0-1.5 .3-2.9 1-4.2c.7-1.3 1.6-2.3 2.8-3c1.1-.8 2.5-1.2 3.8-1.2c1.3 0 2.7 .4 3.8 1.2c1.2 .7 2.1 1.7 2.8 3c.7 1.3 1 2.7 1 4.2c0 1.4-.3 2.9-1 4.1c-.7 1.3-1.6 2.3-2.8 3c-1.1 .8-2.5 1.2-3.8 1.2c-1.3 0-2.7-.4-3.8-1.2c-1.2-.7-2.1-1.7-2.8-3c-.7-1.2-1-2.7-1-4.1Z" class="g2"/>
<path d="M547.4 232c0-1.5 .3-2.9 1-4.2c.7-1.3 1.6-2.3 2.8-3c1.1-.8 2.5-1.2 3.8-1.2c1.3 0 2.7 .4 3.8 1.2c1.2 .7 2.1 1.7 2.8 3c.7 1.3 1 2.7 1 4.2c0 1.4-.3 2.9-1 4.1c-.7 1.3-1.6 2.3-2.8 3c-1.1 .8-2.5 1.2-3.8 1.2c-1.3 0-2.7-.4-3.8-1.2c-1.2-.7-2.1-1.7-2.8-3c-.7-1.2-1-2.7-1-4.1Z" class="g3"/>
<path fill-rule="evenodd" d="M632.5 204.5c0-1.3 .3-2.7 1-3.9c.6-1.3 1.5-2.3 2.6-2.9c1.2-.7 2.4-1.1 3.7-1.1c1.3 0 2.6 .4 3.7 1.1c1.1 .6 2 1.6 2.7 2.9c.6 1.2 1 2.6 1 3.9c0 1.4-.4 2.8-1 4c-.7 1.2-1.6 2.2-2.7 2.9c-1.1 .7-2.4 1.1-3.7 1.1c-1.3 0-2.5-.4-3.7-1.1c-1.1-.7-2-1.7-2.6-2.9c-.7-1.2-1-2.6-1-4Z" class="g2"/>
<path d="M632.5 204.5c0-1.3 .3-2.7 1-3.9c.6-1.3 1.5-2.3 2.6-2.9c1.2-.7 2.4-1.1 3.7-1.1c1.3 0 2.6 .4 3.7 1.1c1.1 .6 2 1.6 2.7 2.9c.6 1.2 1 2.6 1 3.9c0 1.4-.4 2.8-1 4c-.7 1.2-1.6 2.2-2.7 2.9c-1.1 .7-2.4 1.1-3.7 1.1c-1.3 0-2.5-.4-3.7-1.1c-1.1-.7-2-1.7-2.6-2.9c-.7-1.2-1-2.6-1-4Z" class="g3"/>
<path fill-rule="evenodd" d="M696.6 200.9c0-1.3 .4-2.7 1-3.9c.6-1.3 1.5-2.2 2.6-2.9c1.1-.7 2.3-1.1 3.5-1.1c1.3 0 2.5 .4 3.6 1.1c1.1 .7 2 1.6 2.6 2.9c.6 1.2 .9 2.6 .9 3.9c0 1.4-.3 2.8-.9 4c-.6 1.2-1.5 2.2-2.6 2.9c-1.1 .7-2.3 1.1-3.6 1.1c-1.2 0-2.4-.4-3.5-1.1c-1.1-.7-2-1.7-2.6-2.9c-.6-1.2-1-2.6-1-4Z" class="g2"/>
<path d="M696.6 200.9c0-1.3 .4-2.7 1-3.9c.6-1.3 1.5-2.2 2.6-2.9c1.1-.7 2.3-1.1 3.5-1.1c1.3 0 2.5 .4 3.6 1.1c1.1 .7 2 1.6 2.6 2.9c.6 1.2 .9 2.6 .9 3.9c0 1.4-.3 2.8-.9 4c-.6 1.2-1.5 2.2-2.6 2.9c-1.1 .7-2.3 1.1-3.6 1.1c-1.2 0-2.4-.4-3.5-1.1c-1.1-.7-2-1.7-2.6-2.9c-.6-1.2-1-2.6-1-4Z" class="g3"/>
<path d="M562.6 232l69.9-27.4m14.7 0l49.5-3.6" class="g6"/>
<path fill-rule="evenodd" d="M561.2 197.2c0-1.4 .3-2.7 .9-4c.6-1.2 1.5-2.2 2.6-2.9c1.1-.7 2.3-1 3.6-1c1.2 0 2.4 .3 3.5 1c1.1 .7 2 1.7 2.6 2.9c.6 1.3 1 2.6 1 4c0 1.4-.4 2.8-1 4c-.6 1.2-1.5 2.2-2.6 2.9c-1.1 .7-2.3 1.1-3.5 1.1c-1.3 0-2.5-.4-3.6-1.1c-1.1-.7-2-1.7-2.6-2.9c-.6-1.2-.9-2.6-.9-4Z" class="g2"/>
<path d="M561.2 197.2c0-1.4 .3-2.7 .9-4c.6-1.2 1.5-2.2 2.6-2.9c1.1-.7 2.3-1 3.6-1c1.2 0 2.4 .3 3.5 1c1.1 .7 2 1.7 2.6 2.9c.6 1.3 1 2.6 1 4c0 1.4-.4 2.8-1 4c-.6 1.2-1.5 2.2-2.6 2.9c-1.1 .7-2.3 1.1-3.5 1.1c-1.3 0-2.5-.4-3.6-1.1c-1.1-.7-2-1.7-2.6-2.9c-.6-1.2-.9-2.6-.9-4Z" class="g3"/>
<path fill-rule="evenodd" d="M645.5 178.7c0-1.3 .3-2.7 .9-3.8c.6-1.2 1.5-2.2 2.5-2.8c1-.7 2.2-1.1 3.4-1.1c1.2 0 2.3 .4 3.3 1.1c1.1 .6 1.9 1.6 2.5 2.8c.6 1.1 .9 2.5 .9 3.8c0 1.4-.3 2.7-.9 3.9c-.6 1.2-1.4 2.1-2.5 2.8c-1 .7-2.1 1-3.3 1c-1.2 0-2.4-.3-3.4-1c-1-.7-1.9-1.6-2.5-2.8c-.6-1.2-.9-2.5-.9-3.9Z" class="g2"/>
<path d="M645.5 178.7c0-1.3 .3-2.7 .9-3.8c.6-1.2 1.5-2.2 2.5-2.8c1-.7 2.2-1.1 3.4-1.1c1.2 0 2.3 .4 3.3 1.1c1.1 .6 1.9 1.6 2.5 2.8c.6 1.1 .9 2.5 .9 3.8c0 1.4-.3 2.7-.9 3.9c-.6 1.2-1.4 2.1-2.5 2.8c-1 .7-2.1 1-3.3 1c-1.2 0-2.4-.3-3.4-1c-1-.7-1.9-1.6-2.5-2.8c-.6-1.2-.9-2.5-.9-3.9Z" class="g3"/>
<path fill-rule="evenodd" d="M719.3 161.7c0-1.2 .3-2.4 .9-3.5c.6-1 1.5-1.9 2.5-2.5c1-.6 2.2-.9 3.4-.9c1.2 0 2.3 .3 3.3 .9c1.1 .6 1.9 1.5 2.5 2.5c.6 1.1 .9 2.3 .9 3.5c0 1.2-.3 2.3-.9 3.4c-.6 1-1.4 1.9-2.5 2.5c-1 .6-2.1 .9-3.3 .9c-1.2 0-2.4-.3-3.4-.9c-1-.6-1.9-1.5-2.5-2.5c-.6-1.1-.9-2.2-.9-3.4Z" class="g2"/>
<path d="M719.3 161.7c0-1.2 .3-2.4 .9-3.5c.6-1 1.5-1.9 2.5-2.5c1-.6 2.2-.9 3.4-.9c1.2 0 2.3 .3 3.3 .9c1.1 .6 1.9 1.5 2.5 2.5c.6 1.1 .9 2.3 .9 3.5c0 1.2-.3 2.3-.9 3.4c-.6 1-1.4 1.9-2.5 2.5c-1 .6-2.1 .9-3.3 .9c-1.2 0-2.4-.3-3.4-.9c-1-.6-1.9-1.5-2.5-2.5c-.6-1.1-.9-2.2-.9-3.4Z" class="g3"/>
<path d="M659 178.8l60.3-17.1M575.4 197.3l70.1-18.5" class="g6"/>
<path fill-rule="evenodd" d="M600.9 273.2c0-1.4 .3-2.7 1-3.9c.7-1.2 1.7-2.2 2.9-2.9c1.2-.7 2.5-1.1 3.9-1.1c1.4 0 2.8 .4 4 1.1c1.1 .7 2.1 1.7 2.8 2.9c.7 1.2 1.1 2.5 1.1 3.9c0 1.4-.4 2.8-1.1 4c-.7 1.2-1.7 2.2-2.8 2.9c-1.2 .7-2.6 1-4 1c-1.4 0-2.7-.3-3.9-1c-1.2-.7-2.2-1.7-2.9-2.9c-.7-1.2-1-2.6-1-4Z" class="g2"/>
<path d="M600.9 273.2c0-1.4 .3-2.7 1-3.9c.7-1.2 1.7-2.2 2.9-2.9c1.2-.7 2.5-1.1 3.9-1.1c1.4 0 2.8 .4 4 1.1c1.1 .7 2.1 1.7 2.8 2.9c.7 1.2 1.1 2.5 1.1 3.9c0 1.4-.4 2.8-1.1 4c-.7 1.2-1.7 2.2-2.8 2.9c-1.2 .7-2.6 1-4 1c-1.4 0-2.7-.3-3.9-1c-1.2-.7-2.2-1.7-2.9-2.9c-.7-1.2-1-2.6-1-4Zm51.7-15.9c0-1.4 .4-2.8 1.3-4c.8-1.3 1.9-2.3 3.4-3c1.4-.7 3-1.1 4.6-1.1c1.7 0 3.3 .4 4.7 1.1c1.4 .7 2.6 1.7 3.4 3c.8 1.2 1.3 2.6 1.3 4c0 1.4-.5 2.8-1.3 4c-.8 1.2-2 2.3-3.4 3c-1.4 .7-3 1-4.7 1c-1.6 0-3.2-.3-4.6-1c-1.5-.7-2.6-1.8-3.4-3c-.9-1.2-1.3-2.6-1.3-4Z" class="g3"/>
<path fill-rule="evenodd" d="M722.8 253.5c0-1.5 .3-2.8 .9-4c.7-1.3 1.6-2.3 2.6-3c1.1-.7 2.4-1.1 3.6-1.1c1.3 0 2.5 .4 3.6 1.1c1.1 .7 2 1.7 2.6 3c.6 1.2 .9 2.5 .9 4c0 1.4-.3 2.8-.9 4c-.6 1.2-1.5 2.3-2.6 3c-1.1 .6-2.3 1-3.6 1c-1.2 0-2.5-.4-3.6-1c-1-.7-1.9-1.8-2.6-3c-.6-1.2-.9-2.6-.9-4Z" class="g2"/>
<path d="M722.8 253.5c0-1.5 .3-2.8 .9-4c.7-1.3 1.6-2.3 2.6-3c1.1-.7 2.4-1.1 3.6-1.1c1.3 0 2.5 .4 3.6 1.1c1.1 .7 2 1.7 2.6 3c.6 1.2 .9 2.5 .9 4c0 1.4-.3 2.8-.9 4c-.6 1.2-1.5 2.3-2.6 3c-1.1 .6-2.3 1-3.6 1c-1.2 0-2.5-.4-3.6-1c-1-.7-1.9-1.8-2.6-3c-.6-1.2-.9-2.6-.9-4Z" class="g3"/>
<path d="M614.3 267.7l38.3-10.4m18.6 0l51.6-3.8" class="g6"/>
<path d="M917.7 23c0-1.4 .3-2.8 .9-4c.6-1.2 1.5-2.2 2.6-2.9c1.1-.7 2.4-1.1 3.6-1.1c1.2 0 2.5 .4 3.6 1.1c1.1 .7 2 1.7 2.6 2.9c.6 1.2 .9 2.6 .9 4c0 1.5-.3 2.9-.9 4.1c-.6 1.2-1.5 2.2-2.6 2.9c-1.1 .7-2.4 1.1-3.6 1.1c-1.2 0-2.5-.4-3.6-1.1c-1.1-.7-2-1.7-2.6-2.9c-.6-1.2-.9-2.6-.9-4.1Z" class="g5"/>
<path fill-rule="evenodd" d="M973.1 57.1c0-1.2 .3-2.4 .9-3.4c.6-1.1 1.4-1.9 2.5-2.6c1-.6 2.2-.9 3.4-.9c1.1 0 2.3 .3 3.3 .9c1 .7 1.9 1.5 2.5 2.6c.6 1 .9 2.2 .9 3.4c0 1.2-.3 2.4-.9 3.4c-.6 1-1.5 1.9-2.5 2.5c-1 .6-2.2 .9-3.3 .9c-1.2 0-2.4-.3-3.4-.9c-1.1-.6-1.9-1.5-2.5-2.5c-.6-1-.9-2.2-.9-3.4Z" class="g4"/>
<path d="M973.1 57.1c0-1.2 .3-2.4 .9-3.4c.6-1.1 1.4-1.9 2.5-2.6c1-.6 2.2-.9 3.4-.9c1.1 0 2.3 .3 3.3 .9c1 .7 1.9 1.5 2.5 2.6c.6 1 .9 2.2 .9 3.4c0 1.2-.3 2.4-.9 3.4c-.6 1-1.5 1.9-2.5 2.5c-1 .6-2.2 .9-3.3 .9c-1.2 0-2.4-.3-3.4-.9c-1.1-.6-1.9-1.5-2.5-2.5c-.6-1-.9-2.2-.9-3.4Zm-117.2-39c0-1.4 .4-2.8 1-4c.6-1.2 1.5-2.3 2.6-3c1.1-.7 2.3-1.1 3.6-1.1c1.2 0 2.4 .4 3.5 1.1c1.1 .7 2 1.8 2.6 3c.6 1.2 1 2.6 1 4c0 1.4-.4 2.8-1 4c-.6 1.2-1.5 2.3-2.6 3c-1.1 .7-2.3 1.1-3.5 1.1c-1.3 0-2.5-.4-3.6-1.1c-1.1-.7-2-1.8-2.6-3c-.6-1.2-1-2.6-1-4Z" class="g5"/>
<path fill-rule="evenodd" d="M768.4 88.3c0-1.2 .3-2.4 .9-3.4c.6-1.1 1.4-1.9 2.5-2.5c1-.6 2.1-.9 3.4-.9c1.1 0 2.3 .3 3.3 .9c1 .6 1.9 1.4 2.5 2.5c.6 1 .9 2.2 .9 3.4c0 1.2-.3 2.4-.9 3.4c-.6 1.1-1.5 1.9-2.5 2.5c-1 .6-2.2 .9-3.3 .9c-1.3 0-2.4-.3-3.4-.9c-1.1-.6-1.9-1.4-2.5-2.5c-.6-1-.9-2.2-.9-3.4Z" class="g4"/>
<path d="M768.4 88.3c0-1.2 .3-2.4 .9-3.4c.6-1.1 1.4-1.9 2.5-2.5c1-.6 2.1-.9 3.4-.9c1.1 0 2.3 .3 3.3 .9c1 .6 1.9 1.4 2.5 2.5c.6 1 .9 2.2 .9 3.4c0 1.2-.3 2.4-.9 3.4c-.6 1.1-1.5 1.9-2.5 2.5c-1 .6-2.2 .9-3.3 .9c-1.3 0-2.4-.3-3.4-.9c-1.1-.6-1.9-1.4-2.5-2.5c-.6-1-.9-2.2-.9-3.4Z" class="g5"/>
<path fill-rule="evenodd" d="M704.1 92.8c0-1.2 .3-2.4 .9-3.5c.6-1 1.5-1.9 2.5-2.5c1-.6 2.2-.9 3.4-.9c1.2 0 2.3 .3 3.3 .9c1.1 .6 1.9 1.5 2.5 2.5c.6 1.1 .9 2.3 .9 3.5c0 1.2-.3 2.3-.9 3.4c-.6 1-1.4 1.9-2.5 2.5c-1 .6-2.1 .9-3.3 .9c-1.2 0-2.4-.3-3.4-.9c-1-.6-1.9-1.5-2.5-2.5c-.6-1.1-.9-2.2-.9-3.4Z" class="g4"/>
<path d="M704.1 92.8c0-1.2 .3-2.4 .9-3.5c.6-1 1.5-1.9 2.5-2.5c1-.6 2.2-.9 3.4-.9c1.2 0 2.3 .3 3.3 .9c1.1 .6 1.9 1.5 2.5 2.5c.6 1.1 .9 2.3 .9 3.5c0 1.2-.3 2.3-.9 3.4c-.6 1-1.4 1.9-2.5 2.5c-1 .6-2.1 .9-3.3 .9c-1.2 0-2.4-.3-3.4-.9c-1-.6-1.9-1.5-2.5-2.5c-.6-1.1-.9-2.2-.9-3.4Z" class="g5"/>
<path fill-rule="evenodd" d="M637.7 109.7c0-1.2 .3-2.3 .9-3.4c.6-1 1.5-1.9 2.5-2.5c1-.6 2.2-.9 3.4-.9c1.2 0 2.3 .3 3.3 .9c1.1 .6 1.9 1.5 2.5 2.5c.6 1.1 .9 2.2 .9 3.4c0 1.3-.3 2.4-.9 3.5c-.6 1-1.4 1.9-2.5 2.5c-1 .6-2.1 .9-3.3 .9c-1.2 0-2.4-.3-3.4-.9c-1-.6-1.9-1.5-2.5-2.5c-.6-1.1-.9-2.2-.9-3.5Z" class="g4"/>
<path d="M637.7 109.7c0-1.2 .3-2.3 .9-3.4c.6-1 1.5-1.9 2.5-2.5c1-.6 2.2-.9 3.4-.9c1.2 0 2.3 .3 3.3 .9c1.1 .6 1.9 1.5 2.5 2.5c.6 1.1 .9 2.2 .9 3.4c0 1.3-.3 2.4-.9 3.5c-.6 1-1.4 1.9-2.5 2.5c-1 .6-2.1 .9-3.3 .9c-1.2 0-2.4-.3-3.4-.9c-1-.6-1.9-1.5-2.5-2.5c-.6-1.1-.9-2.2-.9-3.5Z" class="g5"/>
<path fill-rule="evenodd" d="M851.3 127.2c0-1.2 .3-2.3 .9-3.4c.6-1 1.5-1.9 2.5-2.5c1-.6 2.2-.9 3.4-.9c1.2 0 2.3 .3 3.3 .9c1.1 .6 1.9 1.5 2.5 2.5c.6 1.1 .9 2.2 .9 3.4c0 1.3-.3 2.4-.9 3.5c-.6 1-1.4 1.9-2.5 2.5c-1 .6-2.1 .9-3.3 .9c-1.2 0-2.4-.3-3.4-.9c-1-.6-1.9-1.5-2.5-2.5c-.6-1.1-.9-2.2-.9-3.5Z" class="g4"/>
<path d="M851.3 127.2c0-1.2 .3-2.3 .9-3.4c.6-1 1.5-1.9 2.5-2.5c1-.6 2.2-.9 3.4-.9c1.2 0 2.3 .3 3.3 .9c1.1 .6 1.9 1.5 2.5 2.5c.6 1.1 .9 2.2 .9 3.4c0 1.3-.3 2.4-.9 3.5c-.6 1-1.4 1.9-2.5 2.5c-1 .6-2.1 .9-3.3 .9c-1.2 0-2.4-.3-3.4-.9c-1-.6-1.9-1.5-2.5-2.5c-.6-1.1-.9-2.2-.9-3.5Z" class="g5"/>
<path fill-rule="evenodd" d="M899.6 123.4c0-1.2 .3-2.4 .9-3.4c.6-1 1.5-1.9 2.5-2.5c1-.6 2.2-.9 3.4-.9c1.1 0 2.3 .3 3.3 .9c1 .6 1.9 1.5 2.5 2.5c.6 1 .9 2.2 .9 3.4c0 1.2-.3 2.4-.9 3.4c-.6 1.1-1.5 2-2.5 2.6c-1 .6-2.2 .9-3.3 .9c-1.2 0-2.4-.3-3.4-.9c-1-.6-1.9-1.5-2.5-2.6c-.6-1-.9-2.2-.9-3.4Z" class="g4"/>
<path d="M899.6 123.4c0-1.2 .3-2.4 .9-3.4c.6-1 1.5-1.9 2.5-2.5c1-.6 2.2-.9 3.4-.9c1.1 0 2.3 .3 3.3 .9c1 .6 1.9 1.5 2.5 2.5c.6 1 .9 2.2 .9 3.4c0 1.2-.3 2.4-.9 3.4c-.6 1.1-1.5 2-2.5 2.6c-1 .6-2.2 .9-3.3 .9c-1.2 0-2.4-.3-3.4-.9c-1-.6-1.9-1.5-2.5-2.6c-.6-1-.9-2.2-.9-3.4Z" class="g5"/>
<path fill-rule="evenodd" d="M954.4 120.2c0-1.2 .3-2.4 .9-3.4c.5-1 1.4-1.9 2.4-2.5c1-.6 2.2-.9 3.4-.9c1.2 0 2.4 .3 3.3 .9c1.1 .6 2 1.5 2.5 2.5c.6 1 .9 2.2 .9 3.4c0 1.2-.3 2.4-.9 3.4c-.5 1.1-1.4 1.9-2.5 2.6c-.9 .6-2.1 .9-3.3 .9c-1.2 0-2.4-.3-3.4-.9c-1-.7-1.9-1.5-2.4-2.6c-.6-1-.9-2.2-.9-3.4Z" class="g4"/>
<path d="M954.4 120.2c0-1.2 .3-2.4 .9-3.4c.5-1 1.4-1.9 2.4-2.5c1-.6 2.2-.9 3.4-.9c1.2 0 2.4 .3 3.3 .9c1.1 .6 2 1.5 2.5 2.5c.6 1 .9 2.2 .9 3.4c0 1.2-.3 2.4-.9 3.4c-.5 1.1-1.4 1.9-2.5 2.6c-.9 .6-2.1 .9-3.3 .9c-1.2 0-2.4-.3-3.4-.9c-1-.7-1.9-1.5-2.4-2.6c-.6-1-.9-2.2-.9-3.4Z" class="g5"/>
<path fill-rule="evenodd" d="M892.4 252.3H797.2v-107H987.7v107H892.4Z" class="g0"/>
<path d="M892.4 252.3H797.2v-107H987.7v107H892.4Z" class="g7"/>
<g clip-path="url(#c0)">
<text x="814.3" y="166.8" dx="0 -.1 0 0 -.1 0 0 0 0 -.1 0 0 0 0 0 0 0 -.1 0 -.1" class="s1">Drop points if they </text>
<text x="833.2" y="186" dx="0 -.1 0 0 -.1 0 0 0 -.1 0 -.1 0 -.1" class="s1">never become </text>
<text x="824.1" y="205.2" dx="0 0 0 0 0 -.1 0 -.1 0 0 -.1 0 0 0 -.1 0 -.1" class="s1">visible again and </text>
<text x="829.7" y="224.5" dx="0 -.1 0 -.1 0 0 0" class="s1">map to </text>
<text x="890.7" y="224.5" dx="0 -.1 0 -.1 0 0 0 0" class="s2">Nearest </text>
<text x="854.3" y="243.7" dx="0 -.1 0 0 0 -.1 0 0" class="s2">Neighbor </text>
</g>
<path fill-rule="evenodd" d="M425.3 53.5c0-1.2 .3-2.4 .9-3.4c.5-1.1 1.4-1.9 2.5-2.5c.9-.7 2.1-1 3.3-1c1.2 0 2.4 .3 3.4 1c1 .6 1.9 1.4 2.4 2.5c.6 1 .9 2.2 .9 3.4c0 1.2-.3 2.4-.9 3.4c-.5 1-1.4 1.9-2.4 2.5c-1 .6-2.2 .9-3.4 .9c-1.2 0-2.4-.3-3.3-.9c-1.1-.6-2-1.5-2.5-2.5c-.6-1-.9-2.2-.9-3.4Z" class="g4"/>
<path d="M425.3 53.5c0-1.2 .3-2.4 .9-3.4c.5-1.1 1.4-1.9 2.5-2.5c.9-.7 2.1-1 3.3-1c1.2 0 2.4 .3 3.4 1c1 .6 1.9 1.4 2.4 2.5c.6 1 .9 2.2 .9 3.4c0 1.2-.3 2.4-.9 3.4c-.5 1-1.4 1.9-2.4 2.5c-1 .6-2.2 .9-3.4 .9c-1.2 0-2.4-.3-3.3-.9c-1.1-.6-2-1.5-2.5-2.5c-.6-1-.9-2.2-.9-3.4Z" class="g5"/>
<path fill-rule="evenodd" d="M225.1 98.9c0-1.2 .3-2.4 .9-3.4c.5-1.1 1.4-2 2.4-2.6c1-.6 2.2-.9 3.4-.9c1.2 0 2.4 .3 3.4 .9c1 .6 1.9 1.5 2.4 2.6c.6 1 .9 2.2 .9 3.4c0 1.2-.3 2.4-.9 3.4c-.5 1-1.4 1.9-2.4 2.5c-1 .6-2.2 .9-3.4 .9c-1.2 0-2.4-.3-3.4-.9c-1-.6-1.9-1.5-2.4-2.5c-.6-1-.9-2.2-.9-3.4Z" class="g4"/>
<path d="M225.1 98.9c0-1.2 .3-2.4 .9-3.4c.5-1.1 1.4-2 2.4-2.6c1-.6 2.2-.9 3.4-.9c1.2 0 2.4 .3 3.4 .9c1 .6 1.9 1.5 2.4 2.6c.6 1 .9 2.2 .9 3.4c0 1.2-.3 2.4-.9 3.4c-.5 1-1.4 1.9-2.4 2.5c-1 .6-2.2 .9-3.4 .9c-1.2 0-2.4-.3-3.4-.9c-1-.6-1.9-1.5-2.4-2.5c-.6-1-.9-2.2-.9-3.4Z" class="g5"/>
<path d="M652.2 109l51.6-13.8m13.8-2.4l50.8-4.5m90.5 38.8l50.7-4.5m-5 .9l54.8-3.3M929.8 28.8l54.8 33.1M870.1 18.1l47.6 5" class="g8"/>
<path d="M1036.6 344.8V50.3" class="g9"/>
<path fill-rule="evenodd" d="M1036.6 39.6l5.7 11.5h-11.4l5.7-11.5Z" class="ga"/>
<path d="M1036.6 345.1h372.9" class="g9"/>
<path clip-path="url(#c0)" fill-rule="evenodd" d="M1420.2 345.1l-11.5 5.7V339.4l11.5 5.7Z" class="ga"/>
<path fill-rule="evenodd" d="M1080.7 276.2c0-1.5 .3-2.9 1-4.2c.7-1.2 1.6-2.3 2.8-3c1.1-.8 2.5-1.1 3.8-1.1c1.3 0 2.6 .3 3.8 1.1c1.1 .7 2.1 1.8 2.7 3c.7 1.3 1.1 2.7 1.1 4.2c0 1.4-.4 2.9-1.1 4.1c-.6 1.3-1.6 2.3-2.7 3.1c-1.2 .7-2.5 1.1-3.8 1.1c-1.3 0-2.7-.4-3.8-1.1c-1.2-.8-2.1-1.8-2.8-3.1c-.7-1.2-1-2.7-1-4.1Z" class="g2"/>
<path d="M1080.7 276.2c0-1.5 .3-2.9 1-4.2c.7-1.2 1.6-2.3 2.8-3c1.1-.8 2.5-1.1 3.8-1.1c1.3 0 2.6 .3 3.8 1.1c1.1 .7 2.1 1.8 2.7 3c.7 1.3 1.1 2.7 1.1 4.2c0 1.4-.4 2.9-1.1 4.1c-.6 1.3-1.6 2.3-2.7 3.1c-1.2 .7-2.5 1.1-3.8 1.1c-1.3 0-2.7-.4-3.8-1.1c-1.2-.8-2.1-1.8-2.8-3.1c-.7-1.2-1-2.7-1-4.1Z" class="g3"/>
<path fill-rule="evenodd" d="M1209.8 245.6c0-1.4 .3-2.8 1-4c.6-1.2 1.5-2.2 2.7-2.9c1.1-.7 2.3-1.1 3.6-1.1c1.3 0 2.6 .4 3.7 1.1c1.2 .7 2.1 1.7 2.7 2.9c.7 1.2 1 2.6 1 4c0 1.4-.3 2.8-1 4c-.6 1.2-1.5 2.2-2.7 2.9c-1.1 .7-2.4 1.1-3.7 1.1c-1.3 0-2.5-.4-3.6-1.1c-1.2-.7-2.1-1.7-2.7-2.9c-.7-1.2-1-2.6-1-4Z" class="g2"/>
<path d="M1209.8 245.6c0-1.4 .3-2.8 1-4c.6-1.2 1.5-2.2 2.7-2.9c1.1-.7 2.3-1.1 3.6-1.1c1.3 0 2.6 .4 3.7 1.1c1.2 .7 2.1 1.7 2.7 2.9c.7 1.2 1 2.6 1 4c0 1.4-.3 2.8-1 4c-.6 1.2-1.5 2.2-2.7 2.9c-1.1 .7-2.4 1.1-3.7 1.1c-1.3 0-2.5-.4-3.6-1.1c-1.2-.7-2.1-1.7-2.7-2.9c-.7-1.2-1-2.6-1-4Z" class="g3"/>
<path fill-rule="evenodd" d="M1339.7 254c0-1.4 .4-2.8 1-4c.6-1.2 1.5-2.2 2.6-2.9c1.1-.7 2.3-1.1 3.6-1.1c1.2 0 2.4 .4 3.5 1.1c1.1 .7 2 1.7 2.6 2.9c.6 1.2 1 2.6 1 4c0 1.4-.4 2.8-1 4c-.6 1.2-1.5 2.2-2.6 2.9c-1.1 .7-2.3 1.1-3.5 1.1c-1.3 0-2.5-.4-3.6-1.1c-1.1-.7-2-1.7-2.6-2.9c-.6-1.2-1-2.6-1-4Z" class="g2"/>
<path d="M1339.7 254c0-1.4 .4-2.8 1-4c.6-1.2 1.5-2.2 2.6-2.9c1.1-.7 2.3-1.1 3.6-1.1c1.2 0 2.4 .4 3.5 1.1c1.1 .7 2 1.7 2.6 2.9c.6 1.2 1 2.6 1 4c0 1.4-.4 2.8-1 4c-.6 1.2-1.5 2.2-2.6 2.9c-1.1 .7-2.3 1.1-3.5 1.1c-1.3 0-2.5-.4-3.6-1.1c-1.1-.7-2-1.7-2.6-2.9c-.6-1.2-1-2.6-1-4Z" class="g3"/>
<path d="M1095.8 276.2l114-30.6m14.7 0l115.3 8.4" class="g6"/>
<path fill-rule="evenodd" d="M1073.8 111.4c0-1.5 .4-2.9 1.1-4.2c.6-1.2 1.6-2.3 2.8-3c1.1-.7 2.4-1.1 3.8-1.1c1.3 0 2.6 .4 3.7 1.1c1.2 .7 2.2 1.8 2.8 3c.7 1.3 1 2.7 1 4.2c0 1.5-.3 2.9-1 4.1c-.6 1.3-1.6 2.3-2.8 3.1c-1.1 .7-2.4 1.1-3.7 1.1c-1.4 0-2.7-.4-3.8-1.1c-1.2-.8-2.2-1.8-2.8-3.1c-.7-1.2-1.1-2.6-1.1-4.1Z" class="gb"/>
<path d="M1073.8 111.4c0-1.5 .4-2.9 1.1-4.2c.6-1.2 1.6-2.3 2.8-3c1.1-.7 2.4-1.1 3.8-1.1c1.3 0 2.6 .4 3.7 1.1c1.2 .7 2.2 1.8 2.8 3c.7 1.3 1 2.7 1 4.2c0 1.5-.3 2.9-1 4.1c-.6 1.3-1.6 2.3-2.8 3.1c-1.1 .7-2.4 1.1-3.7 1.1c-1.4 0-2.7-.4-3.8-1.1c-1.2-.8-2.2-1.8-2.8-3.1c-.7-1.2-1.1-2.6-1.1-4.1Z" class="gc"/>
<path fill-rule="evenodd" d="M1202.9 80.9c0-1.4 .3-2.8 1-4c.6-1.2 1.6-2.2 2.7-2.9c1.1-.7 2.4-1.1 3.7-1.1c1.3 0 2.5 .4 3.6 1.1c1.2 .7 2.1 1.7 2.7 2.9c.7 1.2 1 2.6 1 4c0 1.3-.3 2.7-1 3.9c-.6 1.3-1.5 2.2-2.7 2.9c-1.1 .7-2.3 1.1-3.6 1.1c-1.3 0-2.6-.4-3.7-1.1c-1.1-.7-2.1-1.6-2.7-2.9c-.7-1.2-1-2.6-1-3.9Z" class="gb"/>
<path d="M1202.9 80.9c0-1.4 .3-2.8 1-4c.6-1.2 1.6-2.2 2.7-2.9c1.1-.7 2.4-1.1 3.7-1.1c1.3 0 2.5 .4 3.6 1.1c1.2 .7 2.1 1.7 2.7 2.9c.7 1.2 1 2.6 1 4c0 1.3-.3 2.7-1 3.9c-.6 1.3-1.5 2.2-2.7 2.9c-1.1 .7-2.3 1.1-3.6 1.1c-1.3 0-2.6-.4-3.7-1.1c-1.1-.7-2.1-1.6-2.7-2.9c-.7-1.2-1-2.6-1-3.9Z" class="gc"/>
<path fill-rule="evenodd" d="M1332.9 89.3c0-1.4 .3-2.8 .9-4c.6-1.2 1.5-2.2 2.6-2.9c1.1-.7 2.3-1.1 3.6-1.1c1.2 0 2.4 .4 3.5 1.1c1.1 .7 2 1.7 2.6 2.9c.6 1.2 1 2.6 1 4c0 1.3-.4 2.7-1 3.9c-.6 1.3-1.5 2.3-2.6 2.9c-1.1 .7-2.3 1.1-3.5 1.1c-1.3 0-2.5-.4-3.6-1.1c-1.1-.6-2-1.6-2.6-2.9c-.6-1.2-.9-2.6-.9-3.9Z" class="gb"/>
<path d="M1332.9 89.3c0-1.4 .3-2.8 .9-4c.6-1.2 1.5-2.2 2.6-2.9c1.1-.7 2.3-1.1 3.6-1.1c1.2 0 2.4 .4 3.5 1.1c1.1 .7 2 1.7 2.6 2.9c.6 1.2 1 2.6 1 4c0 1.3-.4 2.7-1 3.9c-.6 1.3-1.5 2.3-2.6 2.9c-1.1 .7-2.3 1.1-3.5 1.1c-1.3 0-2.5-.4-3.6-1.1c-1.1-.6-2-1.6-2.6-2.9c-.6-1.2-.9-2.6-.9-3.9Z" class="gc"/>
<path d="M1089 111.4l113.9-30.5m14.7 0l115.3 8.4" class="gd"/>
<path d="M1108.4 180.8l216.1-8.9" class="ge"/>
<path d="M1088.3 122.3l12.7 35.2" class="gf"/>
<path fill-rule="evenodd" d="M1103.9 165.4l-7.4-7l8.6-3.1l-1.2 10.1Z" class="ga"/>
<path d="M1088.3 257.3l19.2-57.6" class="gf"/>
<path fill-rule="evenodd" d="M1110.2 191.6l1.4 10.1l-8.6-2.9l7.2-7.2Z" class="ga"/>
<path d="M1321.9 165.8l9.5-52.8" class="gf"/>
<path fill-rule="evenodd" d="M1332.9 104.6l2.9 9.8l-9-1.6l6.1-8.2Z" class="ga"/>
<path d="M1324.5 180l13.2 52.3" class="gf"/>
<path fill-rule="evenodd" d="M1339.7 240.5l-6.6-7.7l8.8-2.2l-2.2 9.9Z" class="ga"/>
<image clip-path="url(#c1)" preserveAspectRatio="none" x="1326" y="145" width="56" height="45" href="1/img/3.png"/>
<image clip-path="url(#c2)" preserveAspectRatio="none" x="1113" y="97" width="212" height="47" href="1/img/4.png"/>
<image clip-path="url(#c3)" preserveAspectRatio="none" x="1127" y="262" width="208" height="44" href="1/img/5.png"/>
<path d="M919.8 28.8L909.1 98.7" class="gg"/>
<path fill-rule="evenodd" d="M906.3 116.6l-6.6-20.7l19.2 2.9l-12.6 17.8Z" class="g4"/>
<path fill-rule="evenodd" d="M631.9 327.5H493.7v-30H769.9v30h-138Z" class="g0"/>
<path d="M631.9 327.5H493.7v-30H769.9v30h-138Z" class="gh"/>
<g clip-path="url(#c0)">
<text x="508.9" y="319" dx="0 -.1 0 -.1 0 0 0 -.1 0 0 0 0 0 0 0" class="s1">Keep partially </text>
<text x="627.4" y="319" dx="0 0 -.1 -.1 0 -.1 0 -.1 0 0 -.1 0 0 -.1 0" class="s3">occluded points </text>
</g>
<path fill-rule="evenodd" d="M350.4 319.2H267.3V231.5H433.5v87.7H350.4Z" class="g0"/>
<path d="M350.4 319.2H267.3V231.5H433.5v87.7H350.4Z" class="gi"/>
<g clip-path="url(#c0)">
<text x="278.7" y="253" dx="0 -.1 -.1 0 -.1 0 -.1 0 -.1 0 0 0 -.1 -.1 0 0" class="s1">Randomly sample </text>
<text x="291.2" y="272.2" dx="0 -.1 0 0 -.1 0 -.1 0 0 -.1 0 -.1 0 0 -.1 0" class="s1">n points inside </text>
<text x="335.4" y="291.4" dx="0 0 -.1" class="s1">and </text>
<text x="281.5" y="310.6" dx="0 0 -.1 0 0 0 0 -.1 0 0 -.1 0 -.1 0 -.1 0" class="s1">outside the mask </text>
</g>

</g>

<style>

@font-face {
	font-family: DejaVuMathTeXGyre-Regular_2-;
	src: url("fonts/DejaVuMathTeXGyre-Regular_2-.woff") format("woff");
}

</style>

</svg>
